<?xml version="1.0" encoding="utf-8"?>
<!-- Generator: Adobe Illustrator 16.0.0, SVG Export Plug-In . SVG Version: 6.00 Build 0)  -->
<!DOCTYPE svg PUBLIC "-//W3C//DTD SVG 1.1//EN" "http://www.w3.org/Graphics/SVG/1.1/DTD/svg11.dtd">
<svg version="1.1" id="Capa_1" xmlns="http://www.w3.org/2000/svg" xmlns:xlink="http://www.w3.org/1999/xlink" x="0px" y="0px"
	 width="607.215px" height="607.271px" viewBox="-5.968 117.313 607.215 607.271"
	 enable-background="new -5.968 117.313 607.215 607.271" xml:space="preserve">
<g>
	<linearGradient id="SVGID_1_" gradientUnits="userSpaceOnUse" x1="-140.6624" y1="536.8457" x2="691.3376" y2="210.8458">
		<stop  offset="0" style="stop-color:#8AC949"/>
		<stop  offset="1" style="stop-color:#37BA6A"/>
	</linearGradient>
	<linearGradient id="SVGID_2_" gradientUnits="userSpaceOnUse" x1="212.553" y1="329.1025" x2="601.2473" y2="329.1025">
		<stop  offset="0" style="stop-color:#8AC949"/>
		<stop  offset="1" style="stop-color:#37BA6A"/>
	</linearGradient>
	<path fill="url(#SVGID_1_)" stroke="url(#SVGID_2_)" stroke-width="12" stroke-miterlimit="10" d="M554.152,164.466
		c-54.882-54.881-144.188-54.859-199.08,0l-99.54,99.54c-8.457,8.458-8.457,22.167,0,30.625c8.458,8.458,22.167,8.458,30.624,0
		l99.54-99.54c18.313-18.301,42.785-28.394,68.905-28.394c26.13,0,50.604,10.092,68.915,28.404
		c18.313,18.312,28.405,42.786,28.405,68.916c0,26.12-10.093,50.593-28.405,68.905L393.363,463.107
		c-38.01,37.988-99.832,37.988-137.842,0c-8.457-8.457-22.167-8.457-30.624,0c-8.458,8.458-8.458,22.178,0,30.625
		c27.44,27.44,63.49,41.16,99.539,41.16c36.05,0,72.1-13.72,99.541-41.16l130.175-130.176c26.498-26.487,41.096-61.844,41.096-99.54
		C595.247,226.31,580.65,190.964,554.152,164.466z"/>
	<linearGradient id="SVGID_3_" gradientUnits="userSpaceOnUse" x1="-101.9109" y1="635.7461" x2="730.0891" y2="309.7461">
		<stop  offset="0" style="stop-color:#8AC949"/>
		<stop  offset="1" style="stop-color:#37BA6A"/>
	</linearGradient>
	<linearGradient id="SVGID_4_" gradientUnits="userSpaceOnUse" x1="-5.9675" y1="516.6592" x2="375.0598" y2="516.6592">
		<stop  offset="0" style="stop-color:#8AC949"/>
		<stop  offset="1" style="stop-color:#37BA6A"/>
	</linearGradient>
	<path fill="url(#SVGID_3_)" stroke="url(#SVGID_4_)" stroke-width="12" stroke-miterlimit="10" d="M293.812,562.637l-84.228,84.229
		c-18.312,18.312-42.785,28.404-68.916,28.404c-26.119,0-50.604-10.093-68.915-28.404c-37.999-37.999-37.999-99.833,0-137.832
		l122.519-122.519c18.313-18.301,42.785-28.394,68.916-28.394c26.119,0,50.593,10.093,68.904,28.394
		c8.458,8.458,22.167,8.458,30.625,0c8.457-8.458,8.457-22.167,0-30.624c-54.871-54.871-144.178-54.881-199.08,0L41.117,478.42
		C14.63,504.907,0.032,540.265,0.032,577.96c0,37.685,14.598,73.042,41.096,99.529c26.488,26.498,61.845,41.096,99.529,41.096
		c37.696,0,73.053-14.598,99.54-41.096l84.228-84.228c8.458-8.458,8.458-22.167,0-30.625
		C315.968,554.18,302.27,554.18,293.812,562.637z"/>
	<linearGradient id="SVGID_5_" gradientUnits="userSpaceOnUse" x1="-33.1379" y1="811.2637" x2="798.8621" y2="485.2637">
		<stop  offset="0" style="stop-color:#8AC949"/>
		<stop  offset="1" style="stop-color:#37BA6A"/>
	</linearGradient>
	<linearGradient id="SVGID_6_" gradientUnits="userSpaceOnUse" x1="340.5598" y1="654.002" x2="395.8762" y2="654.002">
		<stop  offset="0" style="stop-color:#8AC949"/>
		<stop  offset="1" style="stop-color:#37BA6A"/>
	</linearGradient>
	<path fill="url(#SVGID_5_)" stroke="url(#SVGID_6_)" stroke-width="12" stroke-miterlimit="10" d="M368.218,599.856
		c-11.955,0-21.658,9.702-21.658,21.657v64.975c0,11.955,9.703,21.658,21.658,21.658s21.658-9.703,21.658-21.658v-64.975
		C389.876,609.548,380.184,599.856,368.218,599.856z"/>
	<linearGradient id="SVGID_7_" gradientUnits="userSpaceOnUse" x1="-32.3718" y1="813.2197" x2="799.6282" y2="487.2198">
		<stop  offset="0" style="stop-color:#8AC949"/>
		<stop  offset="1" style="stop-color:#37BA6A"/>
	</linearGradient>
	<linearGradient id="SVGID_8_" gradientUnits="userSpaceOnUse" x1="402.9153" y1="622.8262" x2="504.1633" y2="622.8262">
		<stop  offset="0" style="stop-color:#8AC949"/>
		<stop  offset="1" style="stop-color:#37BA6A"/>
	</linearGradient>
	<path fill="url(#SVGID_7_)" stroke="url(#SVGID_8_)" stroke-width="12" stroke-miterlimit="10" d="M445.883,584.544
		c-8.457-8.457-22.167-8.457-30.624,0c-8.458,8.457-8.458,22.167,0,30.624l45.937,45.937c4.234,4.234,9.768,6.347,15.313,6.347
		c5.544,0,11.078-2.112,15.312-6.347c8.458-8.457,8.458-22.167,0-30.624L445.883,584.544z"/>
	<linearGradient id="SVGID_9_" gradientUnits="userSpaceOnUse" x1="-60.6785" y1="740.9756" x2="771.3215" y2="414.9756">
		<stop  offset="0" style="stop-color:#8AC949"/>
		<stop  offset="1" style="stop-color:#37BA6A"/>
	</linearGradient>
	<linearGradient id="SVGID_10_" gradientUnits="userSpaceOnUse" x1="405.1545" y1="534.8828" x2="525.4446" y2="534.8828">
		<stop  offset="0" style="stop-color:#8AC949"/>
		<stop  offset="1" style="stop-color:#37BA6A"/>
	</linearGradient>
	<path fill="url(#SVGID_9_)" stroke="url(#SVGID_10_)" stroke-width="12" stroke-miterlimit="10" d="M497.786,513.225h-64.974
		c-11.955,0-21.658,9.702-21.658,21.657c0,11.956,9.703,21.658,21.658,21.658h64.974c11.955,0,21.658-9.702,21.658-21.658
		C519.445,522.927,509.752,513.225,497.786,513.225z"/>
	<linearGradient id="SVGID_11_" gradientUnits="userSpaceOnUse" x1="-207.011" y1="367.5142" x2="624.989" y2="41.5142">
		<stop  offset="0" style="stop-color:#8AC949"/>
		<stop  offset="1" style="stop-color:#37BA6A"/>
	</linearGradient>
	<linearGradient id="SVGID_12_" gradientUnits="userSpaceOnUse" x1="167.2961" y1="210.0127" x2="222.6125" y2="210.0127">
		<stop  offset="0" style="stop-color:#8AC949"/>
		<stop  offset="1" style="stop-color:#37BA6A"/>
	</linearGradient>
	<path fill="url(#SVGID_11_)" stroke="url(#SVGID_12_)" stroke-width="12" stroke-miterlimit="10" d="M194.954,264.158
		c11.955,0,21.658-9.703,21.658-21.658v-64.974c0-11.956-9.703-21.658-21.658-21.658s-21.658,9.703-21.658,21.658V242.5
		C173.296,254.455,182.999,264.158,194.954,264.158z"/>
	<linearGradient id="SVGID_13_" gradientUnits="userSpaceOnUse" x1="-208.1267" y1="364.6665" x2="623.8733" y2="38.6665">
		<stop  offset="0" style="stop-color:#8AC949"/>
		<stop  offset="1" style="stop-color:#37BA6A"/>
	</linearGradient>
	<linearGradient id="SVGID_14_" gradientUnits="userSpaceOnUse" x1="56.3884" y1="241.1851" x2="157.636" y2="241.1851">
		<stop  offset="0" style="stop-color:#8AC949"/>
		<stop  offset="1" style="stop-color:#37BA6A"/>
	</linearGradient>
	<path fill="url(#SVGID_13_)" stroke="url(#SVGID_14_)" stroke-width="12" stroke-miterlimit="10" d="M114.668,279.47
		c4.234,4.234,9.768,6.346,15.313,6.346c5.544,0,11.078-2.111,15.312-6.346c8.458-8.458,8.458-22.167,0-30.625l-45.937-45.947
		c-8.457-8.458-22.167-8.458-30.624,0c-8.458,8.458-8.458,22.167,0,30.625L114.668,279.47z"/>
	<linearGradient id="SVGID_15_" gradientUnits="userSpaceOnUse" x1="-179.571" y1="437.5439" x2="652.429" y2="111.5439">
		<stop  offset="0" style="stop-color:#8AC949"/>
		<stop  offset="1" style="stop-color:#37BA6A"/>
	</linearGradient>
	<linearGradient id="SVGID_16_" gradientUnits="userSpaceOnUse" x1="36.969" y1="329.1318" x2="157.259" y2="329.1318">
		<stop  offset="0" style="stop-color:#8AC949"/>
		<stop  offset="1" style="stop-color:#37BA6A"/>
	</linearGradient>
	<path fill="url(#SVGID_15_)" stroke="url(#SVGID_16_)" stroke-width="12" stroke-miterlimit="10" d="M64.627,350.79h64.974
		c11.956,0,21.658-9.703,21.658-21.658c0-11.955-9.702-21.658-21.658-21.658H64.627c-11.955,0-21.658,9.703-21.658,21.658
		C42.969,341.087,52.672,350.79,64.627,350.79z"/>
</g>
</svg>
