<?xml version="1.0" encoding="utf-8"?>
<!-- Generator: Adobe Illustrator 16.0.0, SVG Export Plug-In . SVG Version: 6.00 Build 0)  -->
<!DOCTYPE svg PUBLIC "-//W3C//DTD SVG 1.1//EN" "http://www.w3.org/Graphics/SVG/1.1/DTD/svg11.dtd">
<svg version="1.1" id="Layer_1" xmlns="http://www.w3.org/2000/svg" xmlns:xlink="http://www.w3.org/1999/xlink" x="0px" y="0px"
	 width="19.088px" height="17.905px" viewBox="0 0 19.088 17.905" enable-background="new 0 0 19.088 17.905" xml:space="preserve">
<g>
	<linearGradient id="SVGID_1_" gradientUnits="userSpaceOnUse" x1="0" y1="5.2324" x2="19.0879" y2="5.2324">
		<stop  offset="0" style="stop-color:#2F58E8"/>
		<stop  offset="1" style="stop-color:#2F58E8"/>
	</linearGradient>
	<path fill-rule="evenodd" clip-rule="evenodd" fill="url(#SVGID_1_)" d="M19.088,10.016c-0.581,0.59-0.775,0.604-1.396,0.014
		c-2.46-2.337-4.811-4.784-7.23-7.16c-0.298-0.292-0.556-0.823-0.922-0.79C9.222,2.104,8.939,2.585,8.65,2.872
		C6.264,5.241,3.883,7.617,1.49,9.981C0.814,10.65,0.546,10.609,0,9.847c0-0.113,0-0.227,0-0.34c2.92-3.048,5.934-6.004,8.937-8.971
		c0.482-0.476,0.739-0.48,1.221-0.013c1.153,1.125,2.295,2.26,3.438,3.396c0.109,0.107,0.269,0.195,0.346,0.298
		c0.099-0.064,0.082-0.181,0.083-0.281c0.015-1.044,0.023-2.09,0.035-3.135c0.005-0.49,0.291-0.786,0.788-0.795
		c1.023-0.016,1.463-0.094,1.425,1.35c-0.043,1.608,0.012,3.222,0.012,4.831c0,0.286,0.065,0.501,0.284,0.706
		c0.534,0.502,1.046,1.031,1.557,1.56c0.33,0.342,0.643,0.702,0.963,1.055C19.088,9.676,19.088,9.847,19.088,10.016z"/>
	<linearGradient id="SVGID_2_" gradientUnits="userSpaceOnUse" x1="1.3257" y1="10.6719" x2="17.8101" y2="10.6719">
		<stop  offset="0" style="stop-color:#2F58E8"/>
		<stop  offset="1" style="stop-color:#2F58E8"/>
	</linearGradient>
	<path fill-rule="evenodd" clip-rule="evenodd" fill="url(#SVGID_2_)" d="M9.553,17.905c-2.007,0-4.013,0.001-6.02,0
		c-1.135-0.001-2.135-0.925-2.169-2.065c-0.041-1.341-0.023-2.684-0.039-4.026c-0.002-0.187,0.07-0.317,0.198-0.443
		c2.6-2.594,5.2-5.188,7.791-7.792c0.208-0.209,0.322-0.164,0.503,0.017c2.594,2.602,5.192,5.197,7.793,7.79
		c0.142,0.141,0.203,0.285,0.199,0.485c-0.029,1.369-0.034,2.739-0.077,4.109c-0.03,0.957-1.073,1.925-2.033,1.926
		C13.651,17.906,11.603,17.905,9.553,17.905z M11.785,13.451c0.004,0,0.007,0,0.011,0c0-0.734,0.005-1.47-0.002-2.206
		c-0.005-0.482-0.313-0.786-0.793-0.789c-0.905-0.004-1.81-0.007-2.714,0.001c-0.729,0.007-0.967,0.241-0.97,0.974
		c-0.006,1.413,0.001,2.827,0.009,4.24c0.002,0.451,0.318,0.762,0.775,0.765c0.976,0.005,1.951,0.007,2.926-0.001
		c0.457-0.003,0.753-0.315,0.756-0.778C11.788,14.922,11.785,14.186,11.785,13.451z"/>
</g>
</svg>
