<?xml version="1.0" encoding="utf-8"?>
<!-- Generator: Adobe Illustrator 16.0.0, SVG Export Plug-In . SVG Version: 6.00 Build 0)  -->
<!DOCTYPE svg PUBLIC "-//W3C//DTD SVG 1.1//EN" "http://www.w3.org/Graphics/SVG/1.1/DTD/svg11.dtd">
<svg version="1.1" id="Layer_1" xmlns="http://www.w3.org/2000/svg" xmlns:xlink="http://www.w3.org/1999/xlink" x="0px" y="0px"
	 width="17.862px" height="17.87px" viewBox="0.612 0.04 17.862 17.87" enable-background="new 0.612 0.04 17.862 17.87"
	 xml:space="preserve">
<g>
	<linearGradient id="SVGID_1_" gradientUnits="userSpaceOnUse" x1="0.6128" y1="8.9746" x2="18.4746" y2="8.9746">
		<stop  offset="0" style="stop-color:#2F58E8"/>
		<stop  offset="1" style="stop-color:#2F58E8"/>
	</linearGradient>
	<path fill-rule="evenodd" clip-rule="evenodd" fill="url(#SVGID_1_)" d="M2.587,7.485c1.494-1.668,3.295-2.407,5.485-2.19
		C8.229,5.31,8.46,5.156,8.566,5.013c1.236-1.658,2.454-3.329,3.658-4.973c2.084,2.085,4.156,4.158,6.25,6.252
		c-1.354,0.993-2.718,2.064-4.159,3.022c-0.801,0.533-1.165,1.072-1.109,2.104c0.097,1.808-0.813,3.257-2.12,4.467
		c-1.229-1.235-2.459-2.474-3.717-3.738c-0.173,0.163-0.279,0.261-0.381,0.361c-1.619,1.617-3.255,3.219-4.844,4.863
		c-0.432,0.448-0.863,0.634-1.482,0.491c-0.097-0.502-0.087-0.938,0.356-1.366c1.668-1.616,3.294-3.273,4.935-4.915
		c0.116-0.116,0.227-0.236,0.363-0.379C5.063,9.954,3.824,8.72,2.587,7.485z M4.761,7.576c2.081,2.083,4.119,4.121,6.172,6.173
		c0.629-0.889,1.135-1.913,0.878-3.002c-0.258-1.087,0.188-1.609,1.011-2.052c0.015-0.008,0.028-0.017,0.042-0.028
		c1.165-0.856,2.329-1.713,3.467-2.551c-1.315-1.323-2.604-2.618-3.912-3.935c-0.05,0.062-0.113,0.135-0.17,0.212
		c-1.017,1.383-2.042,2.76-3.042,4.155C9.008,6.827,8.838,6.88,8.513,6.793C7.128,6.424,5.89,6.788,4.761,7.576z"/>
</g>
</svg>
